<svg id="svg2" xmlns:rdf="http://www.w3.org/1999/02/22-rdf-syntax-ns#" xmlns="http://www.w3.org/2000/svg" viewBox="0 0 31.000064 141.50022" height="39.935mm" width="8.7489mm" version="1.1" xmlns:cc="http://creativecommons.org/ns#" xmlns:dc="http://purl.org/dc/elements/1.1/">
 <path id="handlebg" style="color-rendering:auto;color:#000000;isolation:auto;mix-blend-mode:normal;shape-rendering:auto;solid-color:#000000;image-rendering:auto" d="m8.2476 140.2c-2.321-25.93-2.8911-51.357-2.1348-76.523-3.4064-2.716-5.6256-7.047-5.6256-11.938v-36.242c0-8.3167 6.4147-15.012 14.383-15.012h1.2633c7.9681 0 14.383 6.6954 14.383 15.012v36.242c0 4.6353-1.9927 8.7671-5.1494 11.524 0.71746 25.321 0.15353 50.87-2.1793 76.938-5.0808 0.56513-10.059 0.63214-14.94 0z" fill-rule="evenodd" fill="#f00"/>
 <path id="handlestroke" stroke-linejoin="round" style="color-rendering:auto;color:#000000;isolation:auto;mix-blend-mode:normal;shape-rendering:auto;solid-color:#000000;image-rendering:auto" d="m6.9928 41.293s-0.41302-3.2065-0.75315-5.0039c-0.60109-0.81413-2.5267-2.2099-2.5267-2.2099m3.2978 8.3458 1.0308-10.169c1.6552-3.8826 4.4864-4.9682 7.6761-5.1529 3.1897 0.18473 6.0209 1.2703 7.6761 5.1529l1.0308 10.169m-17.464 0.107c-1.7875 32.105-1.6858 64.465 1.2855 97.668h14.94c2.9713-33.203 3.0729-65.562 1.2855-97.668-2.611-3.4644-4.882-7.2928-8.7555-7.3176-3.8735 0.0248-6.1444 3.8533-8.7555 7.3176zm17.48-1.2398s0.41302-3.2065 0.75315-5.0039c0.60113-0.81391 2.5267-2.2103 2.5267-2.2103m-20.719 8.176c-4.7107-4.709-4.7501-12.334-0.0877-17.092 4.6623-4.7577 12.287-4.8744 17.093-0.26036 4.8056 4.6135 4.9989 12.236 0.43358 17.086m-18.288 21.711c-3.4492-2.738-5.6684-7.069-5.6684-11.96v-36.242c0-8.3167 6.4147-15.012 14.383-15.012h1.2633c7.9681 0 14.383 6.6954 14.383 15.012v36.242c0 4.6353-1.9927 8.7671-5.1364 11.517" stroke="#000" stroke-width="0.971" fill="none"/>
</svg>
